<?xml version="1.0" standalone="no"?>
<!DOCTYPE svg PUBLIC "-//W3C//DTD SVG 20010904//EN"
 "http://www.w3.org/TR/2001/REC-SVG-20010904/DTD/svg10.dtd">
<svg version="1.0" xmlns="http://www.w3.org/2000/svg"
 width="100px" height="100px" viewBox="0 0 509.194366 511.161847"
 preserveAspectRatio="xMidYMid meet">
<g transform="translate(-0.011203,511.569534) scale(0.100000,-0.100000)"
fill="#000000" stroke="none">
<path d="M2360 5114 c-520 -48 -1001 -238 -1384 -545 -43 -35 -89 -72 -102
-82 l-24 -19 0 131 c0 117 -2 133 -20 151 -28 28 -69 36 -99 19 -46 -26 -51
-50 -51 -254 0 -163 3 -196 19 -230 42 -93 81 -105 326 -105 l197 0 29 29 c34
35 38 74 9 111 -18 24 -25 25 -147 30 l-128 5 70 58 c183 153 488 324 715 402
137 47 315 91 459 112 161 24 504 24 661 0 420 -64 790 -220 1135 -480 103
-78 344 -319 422 -422 154 -205 294 -461 367 -671 45 -133 91 -321 113 -464
24 -159 24 -501 0 -660 -64 -420 -220 -790 -480 -1135 -78 -103 -319 -344
-422 -422 -205 -154 -461 -294 -671 -367 -133 -45 -321 -91 -464 -113 -159
-24 -501 -24 -660 0 -420 64 -790 220 -1135 480 -103 78 -344 319 -422 422
-107 142 -184 267 -259 420 -147 303 -223 599 -240 944 -6 116 -10 137 -28
158 -32 37 -92 35 -125 -3 -24 -28 -24 -30 -17 -169 17 -366 103 -694 267
-1024 249 -503 646 -900 1150 -1150 252 -126 480 -198 764 -243 201 -32 549
-32 750 0 284 45 512 117 764 243 504 250 901 647 1150 1150 126 252 198 480
243 764 32 201 32 549 0 750 -45 284 -117 512 -243 764 -249 503 -646 900
-1150 1150 -359 179 -685 258 -1089 265 -113 2 -225 2 -250 0z"/>
<path d="M2502 4253 c-5 -10 -24 -80 -42 -156 -39 -167 -59 -198 -149 -222
-31 -9 -97 -27 -148 -41 -138 -40 -144 -37 -285 108 -115 117 -119 120 -145
109 -16 -6 -38 -20 -51 -29 l-24 -18 42 -145 c61 -210 61 -213 -71 -346 -57
-57 -116 -111 -131 -119 -42 -22 -89 -17 -240 26 -100 29 -143 38 -152 31 -7
-6 -21 -29 -31 -51 l-18 -40 121 -118 c145 -141 148 -147 108 -285 -14 -51
-32 -117 -40 -147 -25 -91 -49 -107 -233 -154 l-158 -41 0 -55 0 -55 158 -41
c184 -47 208 -63 233 -154 8 -30 26 -96 40 -147 40 -138 37 -144 -108 -285
-117 -115 -120 -119 -109 -145 6 -16 20 -38 29 -51 l18 -24 141 41 c146 42
199 49 236 30 32 -16 216 -199 233 -231 22 -42 17 -89 -26 -240 -29 -100 -38
-143 -31 -152 6 -7 29 -21 51 -31 l40 -18 118 121 c141 145 147 148 285 108
51 -14 117 -32 147 -40 91 -25 107 -49 154 -233 l41 -158 49 -3 c27 -2 53 1
58 6 5 5 27 78 48 162 45 178 61 202 150 226 30 8 96 26 147 40 139 40 144 38
285 -108 l118 -121 40 18 c22 10 45 24 51 31 7 9 -2 52 -31 152 -43 151 -48
198 -26 240 17 32 201 215 233 231 37 19 90 12 235 -29 100 -29 143 -38 152
-31 7 6 21 29 31 51 l18 40 -121 118 c-145 141 -148 147 -108 285 14 51 32
117 40 147 25 91 49 107 233 154 l158 41 0 55 0 55 -158 41 c-184 47 -208 63
-233 154 -8 30 -26 96 -40 147 -40 138 -37 144 108 285 118 114 120 118 109
145 -6 15 -20 38 -29 51 l-18 24 -141 -41 c-146 -42 -199 -49 -236 -30 -32 16
-216 199 -233 231 -22 42 -17 89 26 240 29 100 38 143 31 152 -6 7 -29 21 -51
31 l-40 18 -118 -121 c-141 -145 -147 -148 -285 -108 -51 14 -117 32 -147 40
-91 25 -107 49 -154 233 l-41 158 -52 3 c-42 2 -54 0 -61 -15z m333 -707 c349
-104 606 -361 712 -711 25 -84 27 -102 27 -275 0 -173 -2 -191 -27 -275 -106
-350 -360 -604 -712 -712 -84 -25 -102 -27 -275 -27 -173 0 -191 2 -275 27
-352 108 -606 362 -712 712 -25 84 -27 102 -27 275 0 173 2 191 27 273 118
383 400 646 787 732 46 10 111 14 225 11 138 -3 172 -7 250 -30z"/>
<path d="M2404 3400 c-231 -49 -423 -176 -551 -365 -55 -82 -69 -111 -105
-218 -40 -121 -50 -301 -23 -423 73 -329 287 -557 620 -660 47 -15 93 -19 215
-19 165 0 225 12 356 70 169 75 344 250 418 418 59 132 71 192 71 357 0 135
-3 165 -24 230 -65 208 -178 364 -346 477 -82 55 -111 69 -218 105 -82 27
-107 31 -232 34 -77 2 -158 -1 -181 -6z m279 -345 c229 -60 387 -262 387 -495
0 -280 -230 -510 -510 -510 -280 0 -510 230 -510 510 0 231 157 434 383 495
69 18 179 19 250 0z"/>
<path d="M2437 2876 c-106 -45 -167 -109 -203 -218 -36 -111 7 -273 93 -349
68 -59 137 -84 233 -84 71 0 94 4 140 26 80 37 125 81 162 157 29 59 33 76 33
152 0 96 -25 165 -84 233 -84 95 -255 133 -374 83z"/>
<path d="M383 3898 c-38 -42 -73 -114 -73 -150 0 -78 94 -107 146 -45 39 46
72 122 66 152 -11 59 -99 86 -139 43z"/>
<path d="M205 3491 c-30 -13 -43 -31 -65 -96 -25 -74 -25 -88 3 -119 55 -63
129 -33 160 66 22 72 21 92 -5 122 -26 29 -63 39 -93 27z"/>
<path d="M66 3047 c-30 -31 -53 -146 -35 -180 18 -33 40 -46 80 -47 51 0 75
30 88 110 6 36 11 68 11 72 0 3 -12 20 -26 37 -33 39 -83 43 -118 8z"/>
</g>
</svg>
