<?xml version="1.0" standalone="no"?>
<!DOCTYPE svg PUBLIC "-//W3C//DTD SVG 20010904//EN"
 "http://www.w3.org/TR/2001/REC-SVG-20010904/DTD/svg10.dtd">
<svg version="1.0" xmlns="http://www.w3.org/2000/svg"
 width="511.254520pt" height="510.953117pt" viewBox="0 0 511.254520 510.953117"
 preserveAspectRatio="xMidYMid meet">
<g transform="translate(-0.111170,511.551302) scale(0.100000,-0.100000)"
fill="#000000" stroke="none">
<path d="M2325 5110 c-486 -49 -922 -219 -1313 -512 -124 -93 -341 -304 -445
-433 -538 -667 -706 -1566 -445 -2383 94 -296 250 -585 449 -831 100 -125 319
-337 441 -429 259 -194 561 -344 857 -427 245 -67 420 -90 701 -89 179 0 254
5 365 22 433 67 825 232 1169 491 124 93 342 304 440 425 229 282 407 635 496
985 56 218 74 369 74 631 0 261 -18 413 -73 630 -90 351 -268 704 -496 985
-99 122 -318 334 -440 426 -362 271 -777 441 -1225 499 -115 15 -444 21 -555
10z m75 -880 l0 -540 -27 0 c-52 0 -278 39 -373 64 -99 26 -234 71 -315 106
-56 24 -57 14 29 195 142 297 302 500 489 622 60 39 167 91 190 93 4 0 7 -243
7 -540z m417 505 c215 -95 424 -336 589 -680 86 -181 85 -171 27 -196 -88 -38
-238 -87 -344 -113 -104 -25 -293 -56 -343 -56 l-26 0 0 541 0 540 23 -7 c12
-4 45 -17 74 -29z m-1232 -244 c-69 -102 -179 -310 -218 -409 l-18 -44 -27 18
c-28 18 -156 116 -206 156 l-29 24 54 48 c78 68 288 206 404 265 55 28 103 51
106 51 4 0 -26 -49 -66 -109z m1991 58 c54 -28 144 -80 199 -116 105 -68 254
-183 255 -195 0 -8 -178 -148 -231 -181 l-29 -19 -17 44 c-39 99 -149 307
-218 409 -40 60 -70 109 -66 109 4 0 52 -23 107 -51z m-2628 -620 c48 -39 133
-101 188 -139 l102 -70 -24 -92 c-61 -237 -108 -536 -122 -783 l-7 -120 -369
-3 c-204 -1 -373 1 -377 5 -4 5 -1 55 6 113 44 344 167 674 358 959 52 79 146
201 153 201 3 0 44 -32 92 -71z m3372 6 c121 -154 246 -373 320 -561 66 -165
131 -444 142 -604 l3 -45 -375 0 -375 0 -7 120 c-14 247 -61 546 -122 783
l-24 92 117 80 c64 44 148 107 186 140 39 32 73 59 77 60 3 0 29 -29 58 -65z
m-2661 -415 c199 -74 389 -120 601 -146 63 -7 121 -14 128 -14 10 0 12 -67 10
-317 l-3 -318 -493 -3 -493 -2 6 92 c19 282 98 748 127 748 6 0 58 -18 117
-40z m1950 -47 c44 -190 77 -423 96 -671 l6 -82 -493 2 -493 3 -3 317 -2 317
57 6 c281 30 559 96 735 174 72 33 74 31 97 -66z m-2517 -1198 c14 -247 61
-546 122 -783 l24 -92 -102 -70 c-55 -38 -141 -101 -190 -141 l-89 -72 -34 39
c-52 60 -165 230 -217 323 -137 249 -226 520 -261 801 -7 58 -11 108 -8 113 2
4 172 6 376 5 l372 -3 7 -120z m1306 -197 c2 -251 0 -318 -10 -318 -7 0 -65
-7 -128 -14 -212 -26 -402 -72 -601 -146 -59 -22 -111 -40 -117 -40 -29 0
-108 466 -127 748 l-6 92 493 -2 493 -3 3 -317z m1307 240 c-25 -329 -97 -758
-128 -758 -7 0 -59 19 -117 41 -183 71 -428 127 -682 154 l-58 6 0 313 c0 172
3 316 7 319 3 4 226 7 495 7 l489 0 -6 -82z m1077 32 c-11 -160 -76 -439 -142
-604 -48 -122 -135 -291 -205 -398 -62 -94 -162 -228 -171 -228 -3 0 -39 29
-82 64 -42 35 -127 98 -188 140 l-112 76 19 73 c63 239 114 559 125 785 3 64
7 123 10 130 3 10 83 12 376 10 l373 -3 -3 -45z m-2382 -1461 l0 -540 -22 6
c-60 18 -172 82 -245 140 -153 120 -286 300 -408 550 -99 202 -97 191 -38 216
192 82 520 164 676 168 l37 1 0 -541z m479 525 c188 -27 393 -84 554 -153 58
-25 59 -15 -27 -196 -142 -296 -301 -499 -489 -622 -57 -37 -172 -93 -192 -93
-3 0 -5 243 -5 540 l0 540 26 0 c15 0 74 -7 133 -16z m-1484 -437 c60 -136
128 -258 201 -364 34 -51 61 -93 58 -93 -2 0 -53 25 -114 55 -123 62 -319 190
-399 262 l-53 48 68 55 c86 70 186 141 192 136 2 -3 23 -47 47 -99z m2534 -10
c56 -42 101 -81 101 -85 -1 -12 -129 -111 -244 -187 -93 -61 -299 -175 -318
-175 -3 0 27 49 67 109 69 102 179 310 218 409 l17 44 29 -19 c16 -10 74 -53
130 -96z"/>
</g>
</svg>
