<?xml version="1.0" standalone="no"?>
<!DOCTYPE svg PUBLIC "-//W3C//DTD SVG 20010904//EN"
 "http://www.w3.org/TR/2001/REC-SVG-20010904/DTD/svg10.dtd">
<svg version="1.0" xmlns="http://www.w3.org/2000/svg"
 width="50px" height="49px" viewBox="0 0 496.000000 496.000000"
 preserveAspectRatio="xMidYMid meet">
<g transform="translate(-8.000000,504.000000) scale(0.100000,-0.100000)"
fill="#000000" stroke="none">
<path d="M2343 5014 c-23 -23 -25 -31 -20 -79 l5 -54 -531 -4 c-451 -3 -542
-6 -600 -20 -248 -60 -435 -163 -603 -331 -165 -165 -270 -354 -327 -586 -19
-79 -21 -121 -24 -617 l-4 -531 -54 5 c-48 5 -56 3 -79 -20 l-26 -26 0 -191 0
-191 26 -26 c23 -23 31 -25 79 -20 l54 5 4 -531 c3 -451 6 -542 20 -600 60
-248 163 -435 331 -603 168 -168 355 -271 603 -331 58 -14 149 -17 600 -20
l531 -4 -5 -54 c-5 -48 -3 -56 20 -79 l26 -26 191 0 191 0 26 26 c23 23 25 31
20 79 l-5 54 531 4 c496 3 538 5 617 24 232 57 420 162 586 327 168 169 271
355 331 603 14 58 17 149 20 600 l4 531 54 -5 c48 -5 56 -3 79 20 l26 26 0
191 0 191 -26 26 c-23 23 -31 25 -79 20 l-54 -5 -4 531 c-3 451 -6 542 -20
600 -61 251 -164 437 -336 607 -165 164 -349 266 -581 323 -79 19 -121 21
-617 24 l-531 4 5 54 c5 48 3 56 -20 79 l-26 26 -191 0 -191 0 -26 -26z m287
-146 c0 -30 -62 -624 -66 -627 -2 -2 -6 -2 -8 0 -4 3 -66 597 -66 627 0 8 24
12 70 12 46 0 70 -4 70 -12z m-277 -232 c4 -43 6 -80 5 -82 -2 -1 -48 -10
-103 -19 -860 -138 -1533 -811 -1670 -1670 -9 -55 -18 -101 -19 -103 -2 -1
-39 1 -82 5 l-79 8 -3 480 c-2 305 1 511 8 564 20 156 91 335 185 466 48 68
187 205 256 252 114 78 302 153 434 172 33 5 285 8 560 7 l500 -1 8 -79z
m1473 73 c153 -21 331 -92 459 -184 68 -48 205 -187 251 -255 81 -118 146
-280 169 -425 20 -122 22 -1063 3 -1070 -7 -2 -45 -6 -85 -10 -70 -6 -72 -5
-77 17 -2 13 -14 79 -25 148 -92 534 -443 1045 -916 1332 -221 135 -478 232
-710 268 -38 6 -85 13 -103 16 l-33 5 6 72 c4 40 8 78 10 85 6 16 935 17 1051
1z m-1436 -451 c17 -177 18 -178 170 -178 152 0 153 1 170 179 l13 132 46 -7
c108 -14 253 -47 351 -80 138 -45 362 -158 480 -242 115 -81 300 -258 385
-367 202 -258 333 -571 379 -906 l7 -46 -132 -13 c-178 -17 -179 -18 -179
-170 0 -152 1 -153 178 -170 l131 -12 -5 -47 c-30 -241 -137 -539 -269 -746
-151 -237 -369 -451 -607 -596 -214 -130 -468 -219 -724 -253 l-42 -6 -12 132
c-17 177 -18 178 -170 178 -152 0 -153 -1 -170 -178 l-12 -131 -47 5 c-303 38
-629 172 -881 364 -394 301 -647 738 -714 1236 l-6 41 73 7 c244 22 237 17
237 176 0 159 7 154 -237 176 l-73 7 6 41 c67 498 320 935 714 1236 253 193
571 325 875 363 17 2 35 5 41 6 8 0 16 -45 24 -131z m-1821 -1659 c168 -17
308 -33 310 -35 2 -2 2 -6 0 -8 -3 -4 -597 -66 -627 -66 -8 0 -12 24 -12 70 0
46 4 70 12 70 6 0 149 -14 317 -31z m4311 -40 l0 -72 -47 6 c-27 4 -169 18
-318 33 -257 25 -284 29 -274 38 4 4 557 62 612 65 l27 1 0 -71z m-4310 -206
c0 -5 7 -51 15 -103 139 -856 812 -1527 1670 -1665 55 -9 101 -18 103 -19 1
-2 -1 -39 -5 -82 l-8 -79 -475 -3 c-512 -3 -596 2 -735 45 -102 32 -233 98
-311 156 -70 53 -196 183 -241 248 -48 70 -108 196 -136 285 -43 137 -48 214
-45 729 l3 480 55 6 c87 9 110 10 110 2z m4138 -8 c19 -7 17 -948 -3 -1070
-36 -224 -138 -418 -307 -581 -123 -120 -251 -196 -413 -247 -139 -43 -223
-48 -735 -45 l-475 3 -8 79 c-4 43 -6 80 -5 82 2 1 48 10 103 19 421 67 801
261 1105 565 314 314 513 716 575 1163 l6 48 72 -6 c40 -4 78 -8 85 -10z
m-2138 -1477 c0 -7 14 -146 30 -308 16 -162 30 -301 30 -307 0 -9 -21 -13 -70
-13 -49 0 -70 4 -70 13 0 6 14 145 30 307 16 162 30 301 30 308 0 6 5 12 10
12 6 0 10 -6 10 -12z"/>
<path d="M2396 3984 c-288 -52 -549 -270 -657 -548 -51 -132 -59 -212 -59
-602 l0 -354 79 0 80 0 3 388 c4 385 4 387 30 464 40 120 92 204 182 294 124
123 268 193 434 209 l72 8 0 78 0 79 -42 -1 c-24 0 -78 -7 -122 -15z"/>
<path d="M2720 3906 c-7 -42 -11 -78 -9 -79 2 -2 36 -13 74 -25 247 -77 444
-309 485 -572 8 -53 10 -261 8 -720 l-3 -645 -26 -77 -26 -76 70 -31 c81 -36
77 -38 106 55 39 125 42 193 39 874 -4 637 -4 657 -25 730 -64 221 -193 398
-376 518 -78 51 -200 104 -268 117 l-36 7 -13 -76z"/>
<path d="M2320 3601 l0 -79 168 -3 168 -4 76 -37 c91 -45 148 -104 191 -196
29 -62 32 -77 35 -194 l4 -128 80 0 81 0 -5 138 c-4 113 -10 149 -30 203 -56
150 -149 255 -281 319 -104 49 -166 60 -344 60 l-143 0 0 -79z"/>
<path d="M2160 3347 c-49 -16 -133 -102 -148 -153 -8 -29 -12 -151 -12 -418
l0 -376 80 0 80 0 0 375 0 376 25 24 c24 25 26 25 215 25 189 0 191 0 215 -25
l25 -24 0 -536 0 -535 80 0 80 0 0 536 c0 386 -3 548 -12 576 -6 22 -31 62
-55 88 -66 73 -96 80 -337 79 -116 -1 -216 -6 -236 -12z"/>
<path d="M2320 2960 l0 -80 80 0 80 0 0 80 0 80 -80 0 -80 0 0 -80z"/>
<path d="M2960 2385 l0 -416 -25 -24 c-24 -25 -27 -25 -200 -25 l-175 0 0 -80
0 -80 176 0 c110 0 192 5 218 12 55 16 138 99 154 154 9 30 12 160 12 458 l0
416 -80 0 -80 0 0 -415z"/>
<path d="M2320 2360 l0 -360 80 0 80 0 0 360 0 360 -80 0 -80 0 0 -360z"/>
<path d="M1680 2240 l0 -80 80 0 80 0 0 80 0 80 -80 0 -80 0 0 -80z"/>
<path d="M2000 2097 c0 -178 11 -240 60 -342 63 -133 177 -232 327 -287 48
-17 88 -22 236 -26 l177 -4 0 80 0 80 -167 4 c-164 3 -169 4 -235 35 -93 44
-151 100 -196 191 l-37 76 -4 168 -3 168 -79 0 -79 0 0 -143z"/>
<path d="M1680 1966 c0 -65 31 -210 61 -285 106 -265 323 -458 604 -534 64
-17 108 -22 222 -22 94 0 146 4 154 12 8 8 8 28 -1 80 l-12 68 -142 1 c-125 0
-150 3 -221 27 -114 38 -198 90 -290 182 -125 125 -194 266 -210 433 l-8 72
-78 0 -79 0 0 -34z"/>
<path d="M3060 1489 c-44 -44 -103 -91 -142 -113 -38 -21 -68 -39 -68 -40 0
-18 63 -136 73 -136 43 0 236 144 302 225 l39 47 -25 19 c-13 10 -42 31 -64
46 l-40 28 -75 -76z"/>
</g>
</svg>
