<?xml version="1.0" standalone="no"?>
<!DOCTYPE svg PUBLIC "-//W3C//DTD SVG 20010904//EN"
 "http://www.w3.org/TR/2001/REC-SVG-20010904/DTD/svg10.dtd">
<svg version="1.0" xmlns="http://www.w3.org/2000/svg"
 width="50px" height="50px" viewBox="0 0 510.968779 512.088275"
 preserveAspectRatio="xMidYMid meet">
<g transform="translate(-1.096975,512.022521) scale(0.100000,-0.100000)"
fill="#000000" stroke="none">
<path d="M413 5106 c-195 -47 -362 -219 -402 -414 -16 -75 -16 -4189 0 -4264
41 -200 217 -376 417 -417 75 -16 4189 -16 4264 0 200 41 376 217 417 417 16
75 16 4189 0 4264 -41 200 -217 376 -417 417 -82 17 -4209 14 -4279 -3z m4297
-227 c80 -37 125 -81 162 -157 l33 -67 0 -2095 0 -2095 -26 -55 c-37 -80 -81
-125 -157 -162 l-67 -33 -2095 0 -2095 0 -67 33 c-76 37 -120 82 -157 162
l-26 55 0 2095 0 2095 26 55 c14 31 40 72 57 91 39 44 119 88 180 99 26 4 976
7 2112 6 l2065 -1 55 -26z"/>
<path d="M530 4585 l0 -105 110 0 110 0 0 105 0 105 -110 0 -110 0 0 -105z"/>
<path d="M960 4585 l0 -105 105 0 105 0 0 105 0 105 -105 0 -105 0 0 -105z"/>
<path d="M4370 4585 l0 -105 110 0 110 0 0 105 0 105 -110 0 -110 0 0 -105z"/>
<path d="M430 4160 l0 -110 2130 0 2130 0 0 110 0 110 -2130 0 -2130 0 0 -110z"/>
<path d="M1390 3735 l0 -105 1545 0 1545 0 0 -1495 0 -1495 -1920 0 -1920 0 0
960 0 960 -105 0 -105 0 2 -997 3 -998 27 -38 c14 -22 43 -51 65 -65 l38 -27
1995 0 1995 0 38 27 c22 14 51 43 65 65 l27 38 3 1550 c3 1730 8 1600 -68
1669 -21 19 -56 39 -77 45 -26 8 -528 11 -1595 11 l-1558 0 0 -105z"/>
<path d="M640 3735 l-75 -75 175 -175 175 -175 -173 -173 c-94 -95 -172 -177
-172 -182 0 -13 132 -145 145 -145 12 0 415 404 439 440 9 13 16 42 16 64 0
38 -8 47 -227 268 l-228 229 -75 -76z"/>
<path d="M1280 2985 l0 -105 320 0 320 0 0 105 0 105 -320 0 -320 0 0 -105z"/>
</g>
</svg>
