<?xml version="1.0" standalone="no"?>
<!DOCTYPE svg PUBLIC "-//W3C//DTD SVG 20010904//EN"
 "http://www.w3.org/TR/2001/REC-SVG-20010904/DTD/svg10.dtd">
<svg version="1.0" xmlns="http://www.w3.org/2000/svg"
 width="100.000000pt" height="100.000000pt" viewBox="0 0 496.000000 496.000000"
 preserveAspectRatio="xMidYMid meet">
<g transform="translate(-8.000000,504.000000) scale(0.100000,-0.100000)"
fill="#000000" stroke="none">
<path d="M1520 5027 c-19 -6 -58 -34 -85 -62 -71 -70 -91 -146 -63 -237 14
-48 76 -121 118 -138 l30 -12 0 -106 0 -106 160 -161 160 -161 0 -542 0 -542
-333 0 -332 0 -115 306 c-76 204 -121 310 -134 320 -16 11 -62 14 -202 14
l-182 0 -12 30 c-28 68 -129 130 -210 130 -124 0 -240 -116 -240 -240 0 -124
116 -240 240 -240 81 0 182 62 210 130 l12 30 142 0 141 0 88 -233 c48 -129
87 -237 87 -240 0 -4 -31 -7 -69 -7 -67 0 -69 1 -81 30 -28 68 -129 130 -210
130 -124 0 -240 -116 -240 -240 0 -124 116 -240 240 -240 81 0 182 62 210 130
l12 30 489 0 489 0 0 -120 0 -120 -55 0 c-46 0 -60 -4 -80 -25 -23 -22 -25
-32 -25 -120 l0 -95 -569 0 -569 0 -12 30 c-28 68 -129 130 -210 130 -124 0
-240 -116 -240 -240 0 -124 116 -240 240 -240 81 0 182 62 210 130 l12 30 569
0 569 0 0 -80 0 -80 -337 0 -337 0 -161 -160 -161 -160 -71 0 c-69 0 -71 1
-83 30 -28 68 -129 130 -210 130 -124 0 -240 -116 -240 -240 0 -124 116 -240
240 -240 81 0 182 62 210 130 l12 30 106 0 106 0 161 160 161 160 302 0 302 0
0 -175 c0 -242 -20 -225 265 -225 l215 0 0 -133 0 -132 -306 -115 c-204 -76
-310 -121 -320 -134 -11 -16 -14 -62 -14 -202 l0 -182 -30 -12 c-68 -28 -130
-129 -130 -210 0 -124 116 -240 240 -240 124 0 240 116 240 240 0 81 -62 182
-130 210 l-30 12 0 142 0 141 227 85 c124 47 232 86 240 88 10 3 13 -13 13
-66 0 -68 -1 -70 -30 -82 -68 -28 -130 -129 -130 -210 0 -124 116 -240 240
-240 124 0 240 116 240 240 0 81 -62 182 -130 210 l-30 12 0 289 0 289 240 0
240 0 0 -449 0 -449 -30 -12 c-68 -28 -130 -129 -130 -210 0 -124 116 -240
240 -240 124 0 240 116 240 240 0 81 -62 182 -130 210 l-30 12 0 449 0 449 80
0 80 0 0 -217 0 -217 160 -161 160 -161 0 -71 c0 -69 -1 -71 -30 -83 -68 -28
-130 -129 -130 -210 0 -124 116 -240 240 -240 124 0 240 116 240 240 0 81 -62
182 -130 210 l-30 12 0 106 0 106 -160 161 -160 161 0 182 0 182 55 0 c46 0
60 4 80 25 l25 24 0 336 0 335 253 0 252 0 115 -306 c76 -204 121 -310 134
-320 16 -11 62 -14 202 -14 l182 0 12 -30 c28 -68 129 -130 210 -130 124 0
240 116 240 240 0 124 -116 240 -240 240 -81 0 -182 -62 -210 -130 l-12 -30
-142 0 -141 0 -88 233 c-48 129 -87 237 -87 240 0 4 31 7 69 7 67 0 69 -1 81
-30 28 -68 129 -130 210 -130 124 0 240 116 240 240 0 125 -114 240 -238 240
-83 0 -184 -62 -212 -130 l-12 -30 -409 0 -409 0 0 95 c0 88 -2 98 -25 120
-20 21 -34 25 -80 25 l-55 0 0 120 0 120 649 0 649 0 12 -30 c28 -68 129 -130
210 -130 124 0 240 116 240 240 0 124 -116 240 -240 240 -81 0 -182 -62 -210
-130 l-12 -30 -648 0 -647 0 -7 65 c-4 36 -9 72 -12 80 -5 13 44 15 422 15
l428 0 161 160 161 160 71 0 c69 0 71 -1 83 -30 28 -68 129 -130 210 -130 124
0 240 116 240 240 0 125 -114 240 -238 240 -83 0 -184 -62 -212 -130 l-12 -30
-106 0 -106 0 -161 -160 -161 -160 -419 0 -420 1 -34 55 c-38 64 -141 177
-182 201 l-29 17 0 196 0 195 306 114 c208 78 310 121 320 135 11 16 14 60 14
202 l0 182 30 12 c68 28 130 129 130 210 0 125 -114 240 -238 240 -126 0 -242
-115 -242 -240 0 -81 62 -182 130 -210 l30 -12 0 -142 0 -141 -233 -88 c-129
-48 -237 -87 -240 -87 -4 0 -7 31 -7 69 0 67 1 69 30 81 68 28 130 129 130
210 0 125 -114 240 -238 240 -126 0 -242 -115 -242 -240 0 -81 62 -182 130
-210 l30 -12 0 -310 c0 -291 -1 -310 -17 -303 -38 14 -168 35 -223 35 -55 0
-185 -21 -222 -35 -17 -7 -18 19 -18 463 l0 470 30 12 c68 28 130 129 130 210
0 125 -114 240 -238 240 -126 0 -242 -115 -242 -240 0 -81 62 -182 130 -210
l30 -12 0 -514 c0 -330 -4 -514 -10 -514 -5 0 -41 -30 -80 -66 l-70 -66 0 348
0 348 -160 161 -160 161 0 71 c0 69 1 71 30 83 42 17 104 90 118 138 26 86 8
162 -55 232 -65 72 -158 97 -253 67z m135 -172 c50 -49 15 -135 -55 -135 -41
0 -80 39 -80 80 0 41 39 80 80 80 19 0 40 -9 55 -25z m640 0 c50 -49 15 -135
-55 -135 -41 0 -80 39 -80 80 0 41 39 80 80 80 19 0 40 -9 55 -25z m1280 0
c16 -15 25 -36 25 -55 0 -19 -9 -40 -25 -55 -15 -16 -36 -25 -55 -25 -19 0
-40 9 -55 25 -16 15 -25 36 -25 55 0 19 9 40 25 55 15 16 36 25 55 25 19 0 40
-9 55 -25z m-640 -320 c16 -15 25 -36 25 -55 0 -19 -9 -40 -25 -55 -15 -16
-36 -25 -55 -25 -19 0 -40 9 -55 25 -16 15 -25 36 -25 55 0 19 9 40 25 55 15
16 36 25 55 25 19 0 40 -9 55 -25z m-2560 -960 c50 -49 15 -135 -55 -135 -41
0 -80 39 -80 80 0 41 39 80 80 80 19 0 40 -9 55 -25z m4480 0 c16 -15 25 -36
25 -55 0 -19 -9 -40 -25 -55 -15 -16 -36 -25 -55 -25 -19 0 -40 9 -55 25 -16
15 -25 36 -25 55 0 19 9 40 25 55 15 16 36 25 55 25 19 0 40 -9 55 -25z
m-2189 -66 c95 -17 210 -78 282 -149 70 -70 104 -122 141 -219 24 -63 25 -77
29 -323 l4 -258 -80 0 -80 0 -4 248 -3 247 -32 67 c-44 93 -100 151 -191 196
-72 35 -81 37 -172 37 -91 0 -100 -2 -172 -37 -91 -45 -147 -103 -191 -196
l-32 -67 -3 -247 -4 -248 -79 0 -79 0 0 223 c0 123 5 250 11 283 17 98 78 210
155 288 134 133 313 189 500 155z m-32 -321 c55 -16 138 -99 154 -154 8 -27
12 -117 12 -258 l0 -216 -240 0 -240 0 0 216 c0 257 5 279 75 349 70 71 145
90 239 63z m-1939 -253 c50 -49 15 -135 -55 -135 -41 0 -80 39 -80 80 0 41 39
80 80 80 19 0 40 -9 55 -25z m4160 0 c16 -15 25 -36 25 -55 0 -19 -9 -40 -25
-55 -15 -16 -36 -25 -55 -25 -19 0 -40 9 -55 25 -16 15 -25 36 -25 55 0 19 9
40 25 55 15 16 36 25 55 25 19 0 40 -9 55 -25z m-1575 -935 l0 -400 -320 0
-320 0 0 89 0 89 30 12 c68 28 130 129 130 210 0 124 -116 240 -240 240 -124
0 -240 -116 -240 -240 0 -81 62 -182 130 -210 l30 -12 0 -89 0 -89 -320 0
-320 0 0 400 0 400 720 0 720 0 0 -400z m-2905 295 c50 -49 15 -135 -55 -135
-41 0 -80 39 -80 80 0 41 39 80 80 80 19 0 40 -9 55 -25z m4160 0 c50 -49 15
-135 -55 -135 -41 0 -80 39 -80 80 0 41 39 80 80 80 19 0 40 -9 55 -25z
m-1920 -240 c50 -49 15 -135 -55 -135 -19 0 -40 9 -55 25 -16 15 -25 36 -25
55 0 19 9 40 25 55 15 16 36 25 55 25 19 0 40 -9 55 -25z m-2240 -400 c50 -49
15 -135 -55 -135 -41 0 -80 39 -80 80 0 41 39 80 80 80 19 0 40 -9 55 -25z
m4480 0 c50 -49 15 -135 -55 -135 -41 0 -80 39 -80 80 0 41 39 80 80 80 19 0
40 -9 55 -25z m-2560 -960 c50 -49 15 -135 -55 -135 -41 0 -80 39 -80 80 0 19
9 40 25 55 15 16 36 25 55 25 19 0 40 -9 55 -25z m-640 -320 c50 -49 15 -135
-55 -135 -41 0 -80 39 -80 80 0 41 39 80 80 80 19 0 40 -9 55 -25z m1280 0
c50 -49 15 -135 -55 -135 -41 0 -80 39 -80 80 0 41 39 80 80 80 19 0 40 -9 55
-25z m640 0 c50 -49 15 -135 -55 -135 -41 0 -80 39 -80 80 0 41 39 80 80 80
19 0 40 -9 55 -25z"/>
</g>
</svg>
