<?xml version="1.0" standalone="no"?>
<!DOCTYPE svg PUBLIC "-//W3C//DTD SVG 20010904//EN"
 "http://www.w3.org/TR/2001/REC-SVG-20010904/DTD/svg10.dtd">
<svg version="1.0" xmlns="http://www.w3.org/2000/svg"
 width="100.000000pt" height="100.000000pt" viewBox="0 0 496.000000 496.000000"
 preserveAspectRatio="xMidYMid meet">
<g transform="translate(-8.000000,504.000000) scale(0.100000,-0.100000)"
fill="#000000" stroke="none">
<path d="M105 5015 l-25 -24 0 -511 0 -511 25 -24 c20 -21 34 -25 80 -25 l55
0 0 -1335 0 -1336 25 -24 24 -25 1016 0 1015 0 0 -535 0 -536 25 -24 24 -25
1311 0 1311 0 24 25 25 24 0 831 0 831 -25 24 c-20 21 -34 25 -80 25 l-55 0 0
95 c0 88 -2 98 -25 120 -17 18 -35 25 -62 25 l-37 0 142 143 c127 128 142 147
142 177 0 31 -18 52 -183 217 -199 199 -213 208 -271 162 l-26 -20 0 580 0
581 55 0 c46 0 60 4 80 25 l25 24 0 511 0 511 -25 24 -24 25 -2271 0 -2271 0
-24 -25z m4455 -535 l0 -400 -2160 0 -2160 0 0 400 0 400 2160 0 2160 0 0
-400z m-160 -1223 l0 -662 -80 -80 -80 -80 0 238 0 238 -25 24 -24 25 -431 0
-431 0 -24 -25 c-24 -23 -25 -29 -25 -160 l0 -135 -375 0 -376 0 -24 -25 -25
-24 0 -376 0 -375 -55 0 c-46 0 -60 -4 -80 -25 -25 -24 -25 -24 -25 -240 l0
-215 -960 0 -960 0 0 1280 0 1280 2000 0 2000 0 0 -663z m-320 -720 l0 -262
-160 -160 -160 -160 0 318 0 318 -25 24 c-23 24 -29 25 -160 25 l-135 0 0 80
0 80 320 0 320 0 0 -263z m665 -37 l100 -100 -280 -280 -280 -280 -205 0 -205
0 380 380 c209 209 382 380 385 380 3 0 50 -45 105 -100z m-1145 -340 l0 -320
-480 0 -480 0 0 320 0 320 480 0 480 0 0 -320z m1120 -280 l0 -40 -102 0 -102
0 39 40 c37 38 42 40 102 40 l63 0 0 -40z m160 -920 l0 -720 -1200 0 -1200 0
0 720 0 720 1200 0 1200 0 0 -720z"/>
<path d="M1765 3591 c-91 -23 -173 -90 -215 -176 -19 -41 -24 -66 -24 -135 -1
-78 2 -90 33 -148 38 -70 69 -100 145 -140 l51 -27 645 0 645 0 63 34 c70 38
101 70 140 145 22 43 26 64 26 136 0 72 -4 93 -26 136 -39 75 -70 107 -140
145 l-63 34 -625 2 c-344 1 -638 -2 -655 -6z m1281 -177 c53 -39 69 -71 69
-134 0 -63 -16 -95 -69 -134 -27 -21 -39 -21 -624 -24 -401 -2 -609 0 -634 8
-101 29 -140 168 -71 251 51 60 32 59 695 56 595 -2 607 -2 634 -23z"/>
<path d="M3280 1507 c-49 -16 -133 -102 -148 -153 -28 -94 -8 -169 63 -239 31
-32 65 -55 91 -63 58 -17 730 -17 788 0 55 16 138 99 154 154 26 89 9 163 -55
234 -71 79 -79 80 -497 79 -233 -1 -373 -5 -396 -12z m775 -172 c16 -15 25
-36 25 -55 0 -19 -9 -40 -25 -55 l-24 -25 -351 0 -351 0 -24 25 c-16 15 -25
36 -25 55 0 19 9 40 25 55 l24 25 351 0 351 0 24 -25z"/>
</g>
</svg>
